<?xml version="1.0" encoding="UTF-8"?>
<svg width="512px" height="512px" viewBox="0 0 512 512" version="1.1" 
    xmlns="http://www.w3.org/2000/svg" 
    xmlns:xlink="http://www.w3.org/1999/xlink">
    <defs>
        <linearGradient x1="-0%" y1="50.01%" x2="100%" y2="50.01%" id="linearGradient-1">
            <stop stop-color="#52C3E7" offset="0%"></stop>
            <stop stop-color="#0089CC" offset="100%"></stop>
        </linearGradient>
    </defs>
    <g id="Artboard" stroke="none" stroke-width="1" fill="none" fill-rule="evenodd" stroke-linecap="round" stroke-linejoin="round">
        <g id="revolut-icon" transform="translate(107.000000, 92.000000)" fill="url(#linearGradient-1)" fill-rule="nonzero">
            <g id="B-link" transform="translate(4.000000, 4.000000)">
                <g id="B">
                    <path d="M152.807164,76.7819424 L137.530741,76.7819424 C136.269963,83.0003839 135.34014,89.271524 134.746523,95.5953628 L123.63592,163.17612 L142.389988,163.17612 C166.696731,163.17612 184.757371,142.971455 184.757371,112.321916 C184.757371,90.7260069 172.254659,76.7924821 152.807164,76.7924821 L152.807164,76.7819424 Z M152.807164,76.7819424 L137.530741,76.7819424 C136.269963,83.0003839 135.34014,89.271524 134.746523,95.5953628 L123.63592,163.17612 L142.389988,163.17612 C166.696731,163.17612 184.757371,142.971455 184.757371,112.321916 C184.757371,90.7260069 172.254659,76.7924821 152.807164,76.7924821 L152.807164,76.7819424 Z M152.807164,76.7819424 L137.530741,76.7819424 C136.269963,83.0003839 135.34014,89.271524 134.746523,95.5953628 L123.63592,163.17612 L142.389988,163.17612 C166.696731,163.17612 184.757371,142.971455 184.757371,112.321916 C184.757371,90.7260069 172.254659,76.7924821 152.807164,76.7924821 L152.807164,76.7819424 Z M307.268187,293.600025 C303.93238,293.600025 265.042642,288.725399 248.442403,195.369729 C248.442403,195.369729 293.725334,141.511702 293.37862,95.4636161 C287.127264,38.5227179 237.12167,0 166.701984,0 C166.701984,0 78.4475474,3.47811132 62.5302293,6.96676238 C43.8318702,11.0793669 30.8776721,28.203814 31.9616241,47.3760921 C32.1296676,61.3886075 30.9669539,75.3853292 28.4892323,89.1766664 L2.79038086,255.135275 C0.710097707,264.889797 -4.15440279,294.848983 14.599665,317.140514 C26.0855169,330.355808 42.9847413,337.547983 60.4394397,336.649557 C82.8095786,336.786549 104.989759,332.525534 125.72671,324.107277 C132.083131,321.113993 137.572767,316.560829 141.69656,310.869374 C156.999123,328.553362 179.488441,338.295834 202.812758,337.345179 C227.68685,337.208163 252.177457,331.242675 274.346131,319.928273 C296.514805,308.613872 306.285832,307.10669 307.473064,293.663263 L307.268187,293.600025 Z M244.765135,291.370871 C231.343106,295.881876 217.238156,298.000362 203.096433,297.69471 C189.206865,297.69471 170.452798,294.216599 158.65402,260.067869 L138.513097,201.546012 L118.093752,201.546012 L109.058178,257.28538 C107.68183,263.461663 106.983149,269.774962 106.972642,276.098801 L106.972642,277.490045 C106.988402,281.073554 107.697589,284.625443 109.058178,287.940189 C100.94463,291.35621 92.4223096,293.698142 83.7060409,294.906951 C76.0100439,296.15064 68.2352483,296.804103 60.4341864,296.856802 C50.017011,296.856802 40.2932632,293.37869 39.5998355,275.260892 C39.7154068,270.359917 40.1776919,265.469482 40.9866909,260.631745 L66.6855424,94.9471693 C68.8761436,82.288952 70.0371097,69.4726388 70.152681,56.6352461 L70.152681,43.3341052 C91.7067258,39.5608814 113.554952,37.6953489 135.434698,37.7585873 L165.299369,37.7585873 C183.160386,37.379157 200.995137,40.946856 217.385246,48.2087309 C221.797968,50.3482964 225.979547,52.9147209 229.887958,55.8711155 C233.531472,58.9337083 237.008845,62.1898798 240.305134,65.6256369 C244.586301,71.1572298 248.091324,77.2514755 250.722309,83.7381651 C252.943075,90.7237164 254.1134,98.0023391 254.194701,105.334074 L254.194701,111.657913 C252.109165,142.312722 232.666922,167.397282 202.802251,183.417674 L229.887958,255.177434 C237.526169,274.686477 242.39067,282.348861 250.722309,288.620002 C248.777896,289.836365 246.673832,290.774662 244.470953,291.40776 L244.765135,291.370871 Z M152.807164,76.7819424 L137.530741,76.7819424 C136.269963,83.0003839 135.34014,89.271524 134.746523,95.5953628 L123.63592,163.17612 L142.389988,163.17612 C166.696731,163.17612 184.757371,142.971455 184.757371,112.321916 C184.757371,90.7260069 172.254659,76.7924821 152.807164,76.7924821 L152.807164,76.7819424 Z M152.807164,76.7819424 L137.530741,76.7819424 C136.269963,83.0003839 135.34014,89.271524 134.746523,95.5953628 L123.63592,163.17612 L142.389988,163.17612 C166.696731,163.17612 184.757371,142.971455 184.757371,112.321916 C184.757371,90.7260069 172.254659,76.7924821 152.807164,76.7924821 L152.807164,76.7819424 Z M152.807164,76.7819424 L137.530741,76.7819424 C136.269963,83.0003839 135.34014,89.271524 134.746523,95.5953628 L123.63592,163.17612 L142.389988,163.17612 C166.696731,163.17612 184.757371,142.971455 184.757371,112.321916 C184.757371,90.7260069 172.254659,76.7924821 152.807164,76.7924821 L152.807164,76.7819424 Z M152.807164,76.7819424 L137.530741,76.7819424 C136.269963,83.0003839 135.34014,89.271524 134.746523,95.5953628 L123.63592,163.17612 L142.389988,163.17612 C166.696731,163.17612 184.757371,142.971455 184.757371,112.321916 C184.757371,90.7260069 172.254659,76.7924821 152.807164,76.7924821 L152.807164,76.7819424 Z" id="Shape"></path>
                </g>
            </g>
            <g id="B">
                <path d="M152.807164,76.7819424 L137.530741,76.7819424 C136.269963,83.0003839 135.34014,89.271524 134.746523,95.5953628 L123.63592,163.17612 L142.389988,163.17612 C166.696731,163.17612 184.757371,142.971455 184.757371,112.321916 C184.757371,90.7260069 172.254659,76.7924821 152.807164,76.7924821 L152.807164,76.7819424 Z M152.807164,76.7819424 L137.530741,76.7819424 C136.269963,83.0003839 135.34014,89.271524 134.746523,95.5953628 L123.63592,163.17612 L142.389988,163.17612 C166.696731,163.17612 184.757371,142.971455 184.757371,112.321916 C184.757371,90.7260069 172.254659,76.7924821 152.807164,76.7924821 L152.807164,76.7819424 Z M152.807164,76.7819424 L137.530741,76.7819424 C136.269963,83.0003839 135.34014,89.271524 134.746523,95.5953628 L123.63592,163.17612 L142.389988,163.17612 C166.696731,163.17612 184.757371,142.971455 184.757371,112.321916 C184.757371,90.7260069 172.254659,76.7924821 152.807164,76.7924821 L152.807164,76.7819424 Z M307.268187,293.600025 C303.93238,293.600025 265.042642,288.725399 248.442403,195.369729 C248.442403,195.369729 293.725334,141.511702 293.37862,95.4636161 C287.127264,38.5227179 237.12167,0 166.701984,0 C166.701984,0 78.4475474,3.47811132 62.5302293,6.96676238 C43.8318702,11.0793669 30.8776721,28.203814 31.9616241,47.3760921 C32.1296676,61.3886075 30.9669539,75.3853292 28.4892323,89.1766664 L2.79038086,255.135275 C0.710097707,264.889797 -4.15440279,294.848983 14.599665,317.140514 C26.0855169,330.355808 42.9847413,337.547983 60.4394397,336.649557 C82.8095786,336.786549 104.989759,332.525534 125.72671,324.107277 C132.083131,321.113993 137.572767,316.560829 141.69656,310.869374 C156.999123,328.553362 179.488441,338.295834 202.812758,337.345179 C227.68685,337.208163 252.177457,331.242675 274.346131,319.928273 C296.514805,308.613872 306.285832,307.10669 307.473064,293.663263 L307.268187,293.600025 Z M244.765135,291.370871 C231.343106,295.881876 217.238156,298.000362 203.096433,297.69471 C189.206865,297.69471 170.452798,294.216599 158.65402,260.067869 L138.513097,201.546012 L118.093752,201.546012 L109.058178,257.28538 C107.68183,263.461663 106.983149,269.774962 106.972642,276.098801 L106.972642,277.490045 C106.988402,281.073554 107.697589,284.625443 109.058178,287.940189 C100.94463,291.35621 92.4223096,293.698142 83.7060409,294.906951 C76.0100439,296.15064 68.2352483,296.804103 60.4341864,296.856802 C50.017011,296.856802 40.2932632,293.37869 39.5998355,275.260892 C39.7154068,270.359917 40.1776919,265.469482 40.9866909,260.631745 L66.6855424,94.9471693 C68.8761436,82.288952 70.0371097,69.4726388 70.152681,56.6352461 L70.152681,43.3341052 C91.7067258,39.5608814 113.554952,37.6953489 135.434698,37.7585873 L165.299369,37.7585873 C183.160386,37.379157 200.995137,40.946856 217.385246,48.2087309 C221.797968,50.3482964 225.979547,52.9147209 229.887958,55.8711155 C233.531472,58.9337083 237.008845,62.1898798 240.305134,65.6256369 C244.586301,71.1572298 248.091324,77.2514755 250.722309,83.7381651 C252.943075,90.7237164 254.1134,98.0023391 254.194701,105.334074 L254.194701,111.657913 C252.109165,142.312722 232.666922,167.397282 202.802251,183.417674 L229.887958,255.177434 C237.526169,274.686477 242.39067,282.348861 250.722309,288.620002 C248.777896,289.836365 246.673832,290.774662 244.470953,291.40776 L244.765135,291.370871 Z M152.807164,76.7819424 L137.530741,76.7819424 C136.269963,83.0003839 135.34014,89.271524 134.746523,95.5953628 L123.63592,163.17612 L142.389988,163.17612 C166.696731,163.17612 184.757371,142.971455 184.757371,112.321916 C184.757371,90.7260069 172.254659,76.7924821 152.807164,76.7924821 L152.807164,76.7819424 Z M152.807164,76.7819424 L137.530741,76.7819424 C136.269963,83.0003839 135.34014,89.271524 134.746523,95.5953628 L123.63592,163.17612 L142.389988,163.17612 C166.696731,163.17612 184.757371,142.971455 184.757371,112.321916 C184.757371,90.7260069 172.254659,76.7924821 152.807164,76.7924821 L152.807164,76.7819424 Z M152.807164,76.7819424 L137.530741,76.7819424 C136.269963,83.0003839 135.34014,89.271524 134.746523,95.5953628 L123.63592,163.17612 L142.389988,163.17612 C166.696731,163.17612 184.757371,142.971455 184.757371,112.321916 C184.757371,90.7260069 172.254659,76.7924821 152.807164,76.7924821 L152.807164,76.7819424 Z M152.807164,76.7819424 L137.530741,76.7819424 C136.269963,83.0003839 135.34014,89.271524 134.746523,95.5953628 L123.63592,163.17612 L142.389988,163.17612 C166.696731,163.17612 184.757371,142.971455 184.757371,112.321916 C184.757371,90.7260069 172.254659,76.7924821 152.807164,76.7924821 L152.807164,76.7819424 Z" id="Shape"></path>
            </g>
        </g>
    </g>
</svg>